<svg width="401" height="234" viewBox="0 0 401 234" fill="none" xmlns="http://www.w3.org/2000/svg">
<path d="M5.85156 18.4365C5.85156 18.0173 5.70345 17.6641 5.40723 17.377C5.11556 17.0898 4.62109 16.8301 3.92383 16.5977C2.95312 16.3014 2.24447 15.9163 1.79785 15.4424C1.35579 14.9639 1.13477 14.3577 1.13477 13.624C1.13477 12.8766 1.35124 12.2637 1.78418 11.7852C2.22168 11.3066 2.82096 11.0218 3.58203 10.9307V9.43359H4.60059V10.9375C5.36621 11.0423 5.96094 11.3636 6.38477 11.9014C6.81315 12.4391 7.02734 13.1751 7.02734 14.1094H5.76953C5.76953 13.4668 5.61686 12.9564 5.31152 12.5781C5.00618 12.1999 4.59375 12.0107 4.07422 12.0107C3.5319 12.0107 3.11719 12.152 2.83008 12.4346C2.54297 12.7126 2.39941 13.1022 2.39941 13.6035C2.39941 14.0684 2.5498 14.4398 2.85059 14.7178C3.15592 14.9912 3.65495 15.2419 4.34766 15.4697C5.04492 15.693 5.58724 15.9414 5.97461 16.2148C6.36654 16.4837 6.65365 16.7982 6.83594 17.1582C7.02279 17.5182 7.11621 17.9398 7.11621 18.4229C7.11621 19.193 6.88379 19.8128 6.41895 20.2822C5.95866 20.7516 5.31152 21.0296 4.47754 21.1162V22.4219H3.46582V21.1162C2.61816 21.0387 1.9528 20.738 1.46973 20.2139C0.991211 19.6852 0.751953 18.9697 0.751953 18.0674H2.0166C2.0166 18.7008 2.18294 19.1885 2.51562 19.5303C2.84831 19.8721 3.31999 20.043 3.93066 20.043C4.52767 20.043 4.99707 19.8994 5.33887 19.6123C5.68066 19.3252 5.85156 18.9333 5.85156 18.4365ZM11.7852 20.1045C12.2363 20.1045 12.6305 19.9678 12.9678 19.6943C13.305 19.4209 13.4919 19.0791 13.5283 18.6689H14.7246C14.7018 19.0928 14.556 19.4961 14.2871 19.8789C14.0182 20.2617 13.6582 20.5671 13.207 20.7949C12.7604 21.0228 12.2865 21.1367 11.7852 21.1367C10.778 21.1367 9.97591 20.8018 9.37891 20.1318C8.78646 19.4574 8.49023 18.5368 8.49023 17.3701V17.1582C8.49023 16.4382 8.6224 15.7979 8.88672 15.2373C9.15104 14.6768 9.5293 14.2415 10.0215 13.9316C10.5182 13.6217 11.1038 13.4668 11.7783 13.4668C12.6077 13.4668 13.2959 13.7152 13.8428 14.2119C14.3942 14.7087 14.6882 15.3535 14.7246 16.1465H13.5283C13.4919 15.668 13.3096 15.276 12.9814 14.9707C12.6579 14.6608 12.2568 14.5059 11.7783 14.5059C11.1357 14.5059 10.6367 14.7383 10.2812 15.2031C9.93034 15.6634 9.75488 16.3311 9.75488 17.2061V17.4453C9.75488 18.2975 9.93034 18.9538 10.2812 19.4141C10.6322 19.8743 11.1335 20.1045 11.7852 20.1045ZM17.5205 21H16.2559V10.5H17.5205V21ZM20.9248 21H19.6602V13.6035H20.9248V21ZM19.5576 11.6416C19.5576 11.4365 19.6191 11.2633 19.7422 11.1221C19.8698 10.9808 20.0566 10.9102 20.3027 10.9102C20.5488 10.9102 20.7357 10.9808 20.8633 11.1221C20.9909 11.2633 21.0547 11.4365 21.0547 11.6416C21.0547 11.8467 20.9909 12.0176 20.8633 12.1543C20.7357 12.291 20.5488 12.3594 20.3027 12.3594C20.0566 12.3594 19.8698 12.291 19.7422 12.1543C19.6191 12.0176 19.5576 11.8467 19.5576 11.6416ZM26.0244 21.1367C25.0218 21.1367 24.2061 20.8086 23.5771 20.1523C22.9482 19.4915 22.6338 18.6097 22.6338 17.5068V17.2744C22.6338 16.5407 22.7728 15.8867 23.0508 15.3125C23.3333 14.7337 23.7253 14.2826 24.2266 13.959C24.7324 13.6309 25.2793 13.4668 25.8672 13.4668C26.8288 13.4668 27.5762 13.7835 28.1094 14.417C28.6426 15.0505 28.9092 15.9574 28.9092 17.1377V17.6641H23.8984C23.9167 18.3932 24.1286 18.9834 24.5342 19.4346C24.9443 19.8812 25.4639 20.1045 26.0928 20.1045C26.5394 20.1045 26.9176 20.0133 27.2275 19.8311C27.5374 19.6488 27.8086 19.4072 28.041 19.1064L28.8135 19.708C28.1937 20.6605 27.264 21.1367 26.0244 21.1367ZM25.8672 14.5059C25.3568 14.5059 24.9284 14.6927 24.582 15.0664C24.2357 15.4355 24.0215 15.9551 23.9395 16.625H27.6445V16.5293C27.6081 15.8867 27.4349 15.39 27.125 15.0391C26.8151 14.6836 26.3958 14.5059 25.8672 14.5059ZM31.5752 13.6035L31.6162 14.5332C32.1813 13.8223 32.9196 13.4668 33.8311 13.4668C35.3942 13.4668 36.1826 14.3486 36.1963 16.1123V21H34.9316V16.1055C34.9271 15.5723 34.804 15.1781 34.5625 14.9229C34.3255 14.6676 33.9541 14.54 33.4482 14.54C33.0381 14.54 32.6781 14.6494 32.3682 14.8682C32.0583 15.0869 31.8167 15.374 31.6436 15.7295V21H30.3789V13.6035H31.5752ZM39.8193 11.8125V13.6035H41.2002V14.5811H39.8193V19.168C39.8193 19.4642 39.8809 19.6875 40.0039 19.8379C40.127 19.9837 40.3366 20.0566 40.6328 20.0566C40.7786 20.0566 40.9792 20.0293 41.2344 19.9746V21C40.9017 21.0911 40.5781 21.1367 40.2637 21.1367C39.6986 21.1367 39.2725 20.9658 38.9854 20.624C38.6982 20.2822 38.5547 19.7969 38.5547 19.168V14.5811H37.208V13.6035H38.5547V11.8125H39.8193Z" fill="#000088"/>
<path d="M81.9995 13.1318L82.0376 13.9951C82.5623 13.335 83.2479 13.0049 84.0942 13.0049C85.5457 13.0049 86.2778 13.8237 86.2905 15.4614V20H85.1162V15.4551C85.112 14.96 84.9977 14.5939 84.7734 14.3569C84.5534 14.12 84.2085 14.0015 83.7388 14.0015C83.3579 14.0015 83.0236 14.103 82.7358 14.3062C82.4481 14.5093 82.2238 14.7759 82.063 15.106V20H80.8887V13.1318H81.9995ZM90.9116 20.127C89.9806 20.127 89.2231 19.8223 88.6392 19.2129C88.0552 18.5993 87.7632 17.7804 87.7632 16.7563V16.5405C87.7632 15.8592 87.8923 15.252 88.1504 14.7188C88.4128 14.1813 88.7767 13.7624 89.2422 13.4619C89.7119 13.1572 90.2197 13.0049 90.7656 13.0049C91.6585 13.0049 92.3525 13.299 92.8477 13.8872C93.3428 14.4754 93.5903 15.3175 93.5903 16.4136V16.9023H88.9375C88.9544 17.5794 89.1512 18.1274 89.5278 18.5464C89.9087 18.9611 90.3911 19.1685 90.9751 19.1685C91.3898 19.1685 91.741 19.0838 92.0288 18.9146C92.3166 18.7453 92.5684 18.521 92.7842 18.2417L93.5015 18.8003C92.9259 19.6847 92.0627 20.127 90.9116 20.127ZM90.7656 13.9697C90.2917 13.9697 89.8939 14.1432 89.5723 14.4902C89.2507 14.833 89.0518 15.3154 88.9756 15.9375H92.416V15.8486C92.3822 15.252 92.2214 14.7907 91.9336 14.4648C91.6458 14.1348 91.2565 13.9697 90.7656 13.9697ZM101.036 18.3813L102.356 13.1318H103.531L101.531 20H100.579L98.9097 14.7949L97.2847 20H96.3325L94.3394 13.1318H95.5073L96.8594 18.2734L98.459 13.1318H99.4048L101.036 18.3813Z" fill="black"/>
<path d="M328.909 16.96C328.909 15.93 329.046 14.9411 329.319 13.9932C329.597 13.0452 330.01 12.1839 330.557 11.4092C331.104 10.6344 331.671 10.0876 332.259 9.76855L332.519 10.6025C331.853 11.113 331.306 11.8923 330.878 12.9404C330.454 13.9886 330.222 15.1621 330.181 16.4609L330.174 17.042C330.174 18.8011 330.495 20.3278 331.138 21.6221C331.525 22.3968 331.985 23.0029 332.519 23.4404L332.259 24.2129C331.653 23.8757 331.074 23.3105 330.522 22.5176C329.447 20.9681 328.909 19.1156 328.909 16.96Z" fill="#009900"/>
<path d="M387.876 17.0283C387.876 18.0446 387.742 19.0199 387.473 19.9541C387.208 20.8838 386.8 21.7428 386.249 22.5312C385.702 23.3197 385.128 23.8802 384.526 24.2129L384.26 23.4404C384.962 22.9027 385.524 22.0687 385.948 20.9385C386.377 19.8037 386.595 18.5459 386.604 17.165V16.9463C386.604 15.9893 386.504 15.1006 386.304 14.2803C386.103 13.4554 385.823 12.7171 385.463 12.0654C385.107 11.4137 384.706 10.9056 384.26 10.541L384.526 9.76855C385.128 10.1012 385.7 10.6572 386.242 11.4365C386.789 12.2158 387.197 13.0749 387.466 14.0137C387.739 14.9525 387.876 15.9574 387.876 17.0283Z" fill="#009900"/>
<path d="M5.85156 78.4365C5.85156 78.0173 5.70345 77.6641 5.40723 77.377C5.11556 77.0898 4.62109 76.8301 3.92383 76.5977C2.95312 76.3014 2.24447 75.9163 1.79785 75.4424C1.35579 74.9639 1.13477 74.3577 1.13477 73.624C1.13477 72.8766 1.35124 72.2637 1.78418 71.7852C2.22168 71.3066 2.82096 71.0218 3.58203 70.9307V69.4336H4.60059V70.9375C5.36621 71.0423 5.96094 71.3636 6.38477 71.9014C6.81315 72.4391 7.02734 73.1751 7.02734 74.1094H5.76953C5.76953 73.4668 5.61686 72.9564 5.31152 72.5781C5.00618 72.1999 4.59375 72.0107 4.07422 72.0107C3.5319 72.0107 3.11719 72.152 2.83008 72.4346C2.54297 72.7126 2.39941 73.1022 2.39941 73.6035C2.39941 74.0684 2.5498 74.4398 2.85059 74.7178C3.15592 74.9912 3.65495 75.2419 4.34766 75.4697C5.04492 75.693 5.58724 75.9414 5.97461 76.2148C6.36654 76.4837 6.65365 76.7982 6.83594 77.1582C7.02279 77.5182 7.11621 77.9398 7.11621 78.4229C7.11621 79.193 6.88379 79.8128 6.41895 80.2822C5.95866 80.7516 5.31152 81.0296 4.47754 81.1162V82.4219H3.46582V81.1162C2.61816 81.0387 1.9528 80.738 1.46973 80.2139C0.991211 79.6852 0.751953 78.9697 0.751953 78.0674H2.0166C2.0166 78.7008 2.18294 79.1885 2.51562 79.5303C2.84831 79.8721 3.31999 80.043 3.93066 80.043C4.52767 80.043 4.99707 79.8994 5.33887 79.6123C5.68066 79.3252 5.85156 78.9333 5.85156 78.4365ZM12.3936 74.7383C12.2021 74.7064 11.9948 74.6904 11.7715 74.6904C10.9421 74.6904 10.3792 75.0436 10.083 75.75V81H8.81836V73.6035H10.0488L10.0693 74.458C10.484 73.7972 11.0719 73.4668 11.833 73.4668C12.0791 73.4668 12.266 73.4987 12.3936 73.5625V74.7383ZM16.4951 81.1367C15.4925 81.1367 14.6768 80.8086 14.0479 80.1523C13.4189 79.4915 13.1045 78.6097 13.1045 77.5068V77.2744C13.1045 76.5407 13.2435 75.8867 13.5215 75.3125C13.804 74.7337 14.196 74.2826 14.6973 73.959C15.2031 73.6309 15.75 73.4668 16.3379 73.4668C17.2995 73.4668 18.0469 73.7835 18.5801 74.417C19.1133 75.0505 19.3799 75.9574 19.3799 77.1377V77.6641H14.3691C14.3874 78.3932 14.5993 78.9834 15.0049 79.4346C15.415 79.8812 15.9346 80.1045 16.5635 80.1045C17.0101 80.1045 17.3883 80.0133 17.6982 79.8311C18.0081 79.6488 18.2793 79.4072 18.5117 79.1064L19.2842 79.708C18.6644 80.6605 17.7347 81.1367 16.4951 81.1367ZM16.3379 74.5059C15.8275 74.5059 15.3991 74.6927 15.0527 75.0664C14.7064 75.4355 14.4922 75.9551 14.4102 76.625H18.1152V76.5293C18.0788 75.8867 17.9056 75.39 17.5957 75.0391C17.2858 74.6836 16.8665 74.5059 16.3379 74.5059ZM25.1562 79.0381C25.1562 78.6963 25.0264 78.432 24.7666 78.2451C24.5114 78.0537 24.0625 77.8896 23.4199 77.7529C22.7819 77.6162 22.2738 77.4521 21.8955 77.2607C21.5218 77.0693 21.2438 76.8415 21.0615 76.5771C20.8838 76.3128 20.7949 75.9984 20.7949 75.6338C20.7949 75.0277 21.0501 74.515 21.5605 74.0957C22.0755 73.6764 22.7318 73.4668 23.5293 73.4668C24.3678 73.4668 25.0469 73.6833 25.5664 74.1162C26.0905 74.5492 26.3525 75.1029 26.3525 75.7773H25.0811C25.0811 75.431 24.9329 75.1325 24.6367 74.8818C24.3451 74.6312 23.9759 74.5059 23.5293 74.5059C23.069 74.5059 22.709 74.6061 22.4492 74.8066C22.1895 75.0072 22.0596 75.2692 22.0596 75.5928C22.0596 75.8981 22.1803 76.1283 22.4219 76.2832C22.6634 76.4382 23.0986 76.5863 23.7275 76.7275C24.361 76.8688 24.8737 77.0374 25.2656 77.2334C25.6576 77.4294 25.9469 77.6663 26.1338 77.9443C26.3252 78.2178 26.4209 78.5527 26.4209 78.9492C26.4209 79.61 26.1566 80.141 25.6279 80.542C25.0993 80.9385 24.4134 81.1367 23.5703 81.1367C22.9779 81.1367 22.4538 81.0319 21.998 80.8223C21.5423 80.6126 21.1846 80.321 20.9248 79.9473C20.6696 79.569 20.542 79.1611 20.542 78.7236H21.8066C21.8294 79.1475 21.998 79.4847 22.3125 79.7354C22.6315 79.9814 23.0508 80.1045 23.5703 80.1045C24.0488 80.1045 24.4316 80.0088 24.7188 79.8174C25.0104 79.6214 25.1562 79.3617 25.1562 79.0381ZM34.3164 77.3838C34.3164 78.5094 34.0589 79.4163 33.5439 80.1045C33.029 80.7926 32.3317 81.1367 31.4521 81.1367C30.5544 81.1367 29.848 80.8519 29.333 80.2822V83.8438H28.0684V73.6035H29.2236L29.2852 74.4238C29.8001 73.7858 30.5156 73.4668 31.4316 73.4668C32.3203 73.4668 33.0221 73.8018 33.5371 74.4717C34.0566 75.1416 34.3164 76.0736 34.3164 77.2676V77.3838ZM33.0518 77.2402C33.0518 76.4062 32.874 75.7477 32.5186 75.2646C32.1631 74.7816 31.6755 74.54 31.0557 74.54C30.29 74.54 29.7158 74.8796 29.333 75.5586V79.0928C29.7113 79.7673 30.29 80.1045 31.0693 80.1045C31.6755 80.1045 32.1562 79.8652 32.5117 79.3867C32.8717 78.9036 33.0518 78.1882 33.0518 77.2402ZM35.5947 77.2334C35.5947 76.5088 35.736 75.8571 36.0186 75.2783C36.3057 74.6995 36.7021 74.2529 37.208 73.9385C37.7184 73.624 38.2995 73.4668 38.9512 73.4668C39.9583 73.4668 40.7718 73.8154 41.3916 74.5127C42.016 75.21 42.3281 76.1374 42.3281 77.2949V77.3838C42.3281 78.1038 42.1891 78.751 41.9111 79.3252C41.6377 79.8949 41.2435 80.3392 40.7285 80.6582C40.2181 80.9772 39.6302 81.1367 38.9648 81.1367C37.9622 81.1367 37.1488 80.7881 36.5244 80.0908C35.9046 79.3936 35.5947 78.4707 35.5947 77.3223V77.2334ZM36.8662 77.3838C36.8662 78.2041 37.0553 78.8626 37.4336 79.3594C37.8164 79.8561 38.3268 80.1045 38.9648 80.1045C39.6074 80.1045 40.1178 79.8538 40.4961 79.3525C40.8743 78.8467 41.0635 78.1403 41.0635 77.2334C41.0635 76.4222 40.8698 75.766 40.4824 75.2646C40.0996 74.7588 39.5892 74.5059 38.9512 74.5059C38.3268 74.5059 37.8232 74.7542 37.4404 75.251C37.0576 75.7477 36.8662 76.4587 36.8662 77.3838ZM45.1104 73.6035L45.1514 74.5332C45.7165 73.8223 46.4548 73.4668 47.3662 73.4668C48.9294 73.4668 49.7178 74.3486 49.7314 76.1123V81H48.4668V76.1055C48.4622 75.5723 48.3392 75.1781 48.0977 74.9229C47.8607 74.6676 47.4893 74.54 46.9834 74.54C46.5732 74.54 46.2132 74.6494 45.9033 74.8682C45.5934 75.0869 45.3519 75.374 45.1787 75.7295V81H43.9141V73.6035H45.1104ZM55.9453 79.0381C55.9453 78.6963 55.8154 78.432 55.5557 78.2451C55.3005 78.0537 54.8516 77.8896 54.209 77.7529C53.571 77.6162 53.0628 77.4521 52.6846 77.2607C52.3109 77.0693 52.0329 76.8415 51.8506 76.5771C51.6729 76.3128 51.584 75.9984 51.584 75.6338C51.584 75.0277 51.8392 74.515 52.3496 74.0957C52.8646 73.6764 53.5208 73.4668 54.3184 73.4668C55.1569 73.4668 55.8359 73.6833 56.3555 74.1162C56.8796 74.5492 57.1416 75.1029 57.1416 75.7773H55.8701C55.8701 75.431 55.722 75.1325 55.4258 74.8818C55.1341 74.6312 54.765 74.5059 54.3184 74.5059C53.8581 74.5059 53.498 74.6061 53.2383 74.8066C52.9785 75.0072 52.8486 75.2692 52.8486 75.5928C52.8486 75.8981 52.9694 76.1283 53.2109 76.2832C53.4525 76.4382 53.8877 76.5863 54.5166 76.7275C55.1501 76.8688 55.6628 77.0374 56.0547 77.2334C56.4466 77.4294 56.736 77.6663 56.9229 77.9443C57.1143 78.2178 57.21 78.5527 57.21 78.9492C57.21 79.61 56.9456 80.141 56.417 80.542C55.8883 80.9385 55.2025 81.1367 54.3594 81.1367C53.7669 81.1367 53.2428 81.0319 52.7871 80.8223C52.3314 80.6126 51.9736 80.321 51.7139 79.9473C51.4587 79.569 51.3311 79.1611 51.3311 78.7236H52.5957C52.6185 79.1475 52.7871 79.4847 53.1016 79.7354C53.4206 79.9814 53.8398 80.1045 54.3594 80.1045C54.8379 80.1045 55.2207 80.0088 55.5078 79.8174C55.7995 79.6214 55.9453 79.3617 55.9453 79.0381ZM61.9268 81.1367C60.9242 81.1367 60.1084 80.8086 59.4795 80.1523C58.8506 79.4915 58.5361 78.6097 58.5361 77.5068V77.2744C58.5361 76.5407 58.6751 75.8867 58.9531 75.3125C59.2357 74.7337 59.6276 74.2826 60.1289 73.959C60.6348 73.6309 61.1816 73.4668 61.7695 73.4668C62.7311 73.4668 63.4785 73.7835 64.0117 74.417C64.5449 75.0505 64.8115 75.9574 64.8115 77.1377V77.6641H59.8008C59.819 78.3932 60.0309 78.9834 60.4365 79.4346C60.8467 79.8812 61.3662 80.1045 61.9951 80.1045C62.4417 80.1045 62.82 80.0133 63.1299 79.8311C63.4398 79.6488 63.7109 79.4072 63.9434 79.1064L64.7158 79.708C64.096 80.6605 63.1663 81.1367 61.9268 81.1367ZM61.7695 74.5059C61.2591 74.5059 60.8307 74.6927 60.4844 75.0664C60.138 75.4355 59.9238 75.9551 59.8418 76.625H63.5469V76.5293C63.5104 75.8867 63.3372 75.39 63.0273 75.0391C62.7174 74.6836 62.2982 74.5059 61.7695 74.5059Z" fill="#000088"/>
<path d="M101.852 78.4365C101.852 78.0173 101.703 77.6641 101.407 77.377C101.116 77.0898 100.621 76.8301 99.9238 76.5977C98.9531 76.3014 98.2445 75.9163 97.7979 75.4424C97.3558 74.9639 97.1348 74.3577 97.1348 73.624C97.1348 72.8766 97.3512 72.2637 97.7842 71.7852C98.2217 71.3066 98.821 71.0218 99.582 70.9307V69.4336H100.601V70.9375C101.366 71.0423 101.961 71.3636 102.385 71.9014C102.813 72.4391 103.027 73.1751 103.027 74.1094H101.77C101.77 73.4668 101.617 72.9564 101.312 72.5781C101.006 72.1999 100.594 72.0107 100.074 72.0107C99.5319 72.0107 99.1172 72.152 98.8301 72.4346C98.543 72.7126 98.3994 73.1022 98.3994 73.6035C98.3994 74.0684 98.5498 74.4398 98.8506 74.7178C99.1559 74.9912 99.6549 75.2419 100.348 75.4697C101.045 75.693 101.587 75.9414 101.975 76.2148C102.367 76.4837 102.654 76.7982 102.836 77.1582C103.023 77.5182 103.116 77.9398 103.116 78.4229C103.116 79.193 102.884 79.8128 102.419 80.2822C101.959 80.7516 101.312 81.0296 100.478 81.1162V82.4219H99.4658V81.1162C98.6182 81.0387 97.9528 80.738 97.4697 80.2139C96.9912 79.6852 96.752 78.9697 96.752 78.0674H98.0166C98.0166 78.7008 98.1829 79.1885 98.5156 79.5303C98.8483 79.8721 99.32 80.043 99.9307 80.043C100.528 80.043 100.997 79.8994 101.339 79.6123C101.681 79.3252 101.852 78.9333 101.852 78.4365ZM107.785 80.1045C108.236 80.1045 108.631 79.9678 108.968 79.6943C109.305 79.4209 109.492 79.0791 109.528 78.6689H110.725C110.702 79.0928 110.556 79.4961 110.287 79.8789C110.018 80.2617 109.658 80.5671 109.207 80.7949C108.76 81.0228 108.286 81.1367 107.785 81.1367C106.778 81.1367 105.976 80.8018 105.379 80.1318C104.786 79.4574 104.49 78.5368 104.49 77.3701V77.1582C104.49 76.4382 104.622 75.7979 104.887 75.2373C105.151 74.6768 105.529 74.2415 106.021 73.9316C106.518 73.6217 107.104 73.4668 107.778 73.4668C108.608 73.4668 109.296 73.7152 109.843 74.2119C110.394 74.7087 110.688 75.3535 110.725 76.1465H109.528C109.492 75.668 109.31 75.276 108.981 74.9707C108.658 74.6608 108.257 74.5059 107.778 74.5059C107.136 74.5059 106.637 74.7383 106.281 75.2031C105.93 75.6634 105.755 76.3311 105.755 77.2061V77.4453C105.755 78.2975 105.93 78.9538 106.281 79.4141C106.632 79.8743 107.133 80.1045 107.785 80.1045ZM113.521 81H112.256V70.5H113.521V81ZM116.925 81H115.66V73.6035H116.925V81ZM115.558 71.6416C115.558 71.4365 115.619 71.2633 115.742 71.1221C115.87 70.9808 116.057 70.9102 116.303 70.9102C116.549 70.9102 116.736 70.9808 116.863 71.1221C116.991 71.2633 117.055 71.4365 117.055 71.6416C117.055 71.8467 116.991 72.0176 116.863 72.1543C116.736 72.291 116.549 72.3594 116.303 72.3594C116.057 72.3594 115.87 72.291 115.742 72.1543C115.619 72.0176 115.558 71.8467 115.558 71.6416ZM122.024 81.1367C121.022 81.1367 120.206 80.8086 119.577 80.1523C118.948 79.4915 118.634 78.6097 118.634 77.5068V77.2744C118.634 76.5407 118.773 75.8867 119.051 75.3125C119.333 74.7337 119.725 74.2826 120.227 73.959C120.732 73.6309 121.279 73.4668 121.867 73.4668C122.829 73.4668 123.576 73.7835 124.109 74.417C124.643 75.0505 124.909 75.9574 124.909 77.1377V77.6641H119.898C119.917 78.3932 120.129 78.9834 120.534 79.4346C120.944 79.8812 121.464 80.1045 122.093 80.1045C122.539 80.1045 122.918 80.0133 123.228 79.8311C123.537 79.6488 123.809 79.4072 124.041 79.1064L124.813 79.708C124.194 80.6605 123.264 81.1367 122.024 81.1367ZM121.867 74.5059C121.357 74.5059 120.928 74.6927 120.582 75.0664C120.236 75.4355 120.021 75.9551 119.939 76.625H123.645V76.5293C123.608 75.8867 123.435 75.39 123.125 75.0391C122.815 74.6836 122.396 74.5059 121.867 74.5059ZM127.575 73.6035L127.616 74.5332C128.181 73.8223 128.92 73.4668 129.831 73.4668C131.394 73.4668 132.183 74.3486 132.196 76.1123V81H130.932V76.1055C130.927 75.5723 130.804 75.1781 130.562 74.9229C130.326 74.6676 129.954 74.54 129.448 74.54C129.038 74.54 128.678 74.6494 128.368 74.8682C128.058 75.0869 127.817 75.374 127.644 75.7295V81H126.379V73.6035H127.575ZM135.819 71.8125V73.6035H137.2V74.5811H135.819V79.168C135.819 79.4642 135.881 79.6875 136.004 79.8379C136.127 79.9837 136.337 80.0566 136.633 80.0566C136.779 80.0566 136.979 80.0293 137.234 79.9746V81C136.902 81.0911 136.578 81.1367 136.264 81.1367C135.699 81.1367 135.272 80.9658 134.985 80.624C134.698 80.2822 134.555 79.7969 134.555 79.168V74.5811H133.208V73.6035H134.555V71.8125H135.819Z" fill="#000088"/>
<path d="M169.381 81V74.5811H168.212V73.6035H169.381V72.9746C169.381 72.1497 169.616 71.5072 170.085 71.0469C170.559 70.5866 171.227 70.3564 172.088 70.3564C172.598 70.3564 173.243 70.4954 174.022 70.7734L173.811 71.8398C173.241 71.612 172.699 71.498 172.184 71.498C171.641 71.498 171.249 71.6211 171.008 71.8672C170.771 72.1087 170.652 72.4733 170.652 72.9609V73.6035H172.163V74.5811H170.652V81H169.381ZM174.651 81H173.38V73.6035H174.651V81ZM178.083 81H176.818V70.5H178.083V81ZM183.183 81.1367C182.18 81.1367 181.364 80.8086 180.735 80.1523C180.106 79.4915 179.792 78.6097 179.792 77.5068V77.2744C179.792 76.5407 179.931 75.8867 180.209 75.3125C180.492 74.7337 180.883 74.2826 181.385 73.959C181.891 73.6309 182.438 73.4668 183.025 73.4668C183.987 73.4668 184.734 73.7835 185.268 74.417C185.801 75.0505 186.067 75.9574 186.067 77.1377V77.6641H181.057C181.075 78.3932 181.287 78.9834 181.692 79.4346C182.103 79.8812 182.622 80.1045 183.251 80.1045C183.698 80.1045 184.076 80.0133 184.386 79.8311C184.696 79.6488 184.967 79.4072 185.199 79.1064L185.972 79.708C185.352 80.6605 184.422 81.1367 183.183 81.1367ZM183.025 74.5059C182.515 74.5059 182.087 74.6927 181.74 75.0664C181.394 75.4355 181.18 75.9551 181.098 76.625H184.803V76.5293C184.766 75.8867 184.593 75.39 184.283 75.0391C183.973 74.6836 183.554 74.5059 183.025 74.5059ZM191.844 79.0381C191.844 78.6963 191.714 78.432 191.454 78.2451C191.199 78.0537 190.75 77.8896 190.107 77.7529C189.469 77.6162 188.961 77.4521 188.583 77.2607C188.209 77.0693 187.931 76.8415 187.749 76.5771C187.571 76.3128 187.482 75.9984 187.482 75.6338C187.482 75.0277 187.738 74.515 188.248 74.0957C188.763 73.6764 189.419 73.4668 190.217 73.4668C191.055 73.4668 191.734 73.6833 192.254 74.1162C192.778 74.5492 193.04 75.1029 193.04 75.7773H191.769C191.769 75.431 191.62 75.1325 191.324 74.8818C191.033 74.6312 190.663 74.5059 190.217 74.5059C189.757 74.5059 189.396 74.6061 189.137 74.8066C188.877 75.0072 188.747 75.2692 188.747 75.5928C188.747 75.8981 188.868 76.1283 189.109 76.2832C189.351 76.4382 189.786 76.5863 190.415 76.7275C191.049 76.8688 191.561 77.0374 191.953 77.2334C192.345 77.4294 192.634 77.6663 192.821 77.9443C193.013 78.2178 193.108 78.5527 193.108 78.9492C193.108 79.61 192.844 80.141 192.315 80.542C191.787 80.9385 191.101 81.1367 190.258 81.1367C189.665 81.1367 189.141 81.0319 188.686 80.8223C188.23 80.6126 187.872 80.321 187.612 79.9473C187.357 79.569 187.229 79.1611 187.229 78.7236H188.494C188.517 79.1475 188.686 79.4847 189 79.7354C189.319 79.9814 189.738 80.1045 190.258 80.1045C190.736 80.1045 191.119 80.0088 191.406 79.8174C191.698 79.6214 191.844 79.3617 191.844 79.0381Z" fill="#004000"/>
<path d="M224.649 77.2402C224.649 76.1055 224.918 75.194 225.456 74.5059C225.994 73.8132 226.698 73.4668 227.568 73.4668C228.434 73.4668 229.12 73.763 229.626 74.3555V70.5H230.891V81H229.729L229.667 80.207C229.161 80.8268 228.457 81.1367 227.555 81.1367C226.698 81.1367 225.998 80.7858 225.456 80.084C224.918 79.3822 224.649 78.4661 224.649 77.3359V77.2402ZM225.914 77.3838C225.914 78.2223 226.087 78.8786 226.434 79.3525C226.78 79.8265 227.258 80.0635 227.869 80.0635C228.671 80.0635 229.257 79.7035 229.626 78.9834V75.5859C229.248 74.8887 228.667 74.54 227.883 74.54C227.263 74.54 226.78 74.7793 226.434 75.2578C226.087 75.7363 225.914 76.445 225.914 77.3838ZM232.524 77.2334C232.524 76.5088 232.666 75.8571 232.948 75.2783C233.235 74.6995 233.632 74.2529 234.138 73.9385C234.648 73.624 235.229 73.4668 235.881 73.4668C236.888 73.4668 237.701 73.8154 238.321 74.5127C238.946 75.21 239.258 76.1374 239.258 77.2949V77.3838C239.258 78.1038 239.119 78.751 238.841 79.3252C238.567 79.8949 238.173 80.3392 237.658 80.6582C237.148 80.9772 236.56 81.1367 235.895 81.1367C234.892 81.1367 234.078 80.7881 233.454 80.0908C232.834 79.3936 232.524 78.4707 232.524 77.3223V77.2334ZM233.796 77.3838C233.796 78.2041 233.985 78.8626 234.363 79.3594C234.746 79.8561 235.257 80.1045 235.895 80.1045C236.537 80.1045 237.048 79.8538 237.426 79.3525C237.804 78.8467 237.993 78.1403 237.993 77.2334C237.993 76.4222 237.799 75.766 237.412 75.2646C237.029 74.7588 236.519 74.5059 235.881 74.5059C235.257 74.5059 234.753 74.7542 234.37 75.251C233.987 75.7477 233.796 76.4587 233.796 77.3838ZM247.393 79.2568L248.814 73.6035H250.079L247.926 81H246.9L245.103 75.3945L243.353 81H242.327L240.181 73.6035H241.438L242.895 79.1406L244.617 73.6035H245.636L247.393 79.2568ZM252.567 73.6035L252.608 74.5332C253.174 73.8223 253.912 73.4668 254.823 73.4668C256.386 73.4668 257.175 74.3486 257.188 76.1123V81H255.924V76.1055C255.919 75.5723 255.796 75.1781 255.555 74.9229C255.318 74.6676 254.946 74.54 254.44 74.54C254.03 74.54 253.67 74.6494 253.36 74.8682C253.05 75.0869 252.809 75.374 252.636 75.7295V81H251.371V73.6035H252.567ZM260.47 81H259.205V70.5H260.47V81ZM262.165 77.2334C262.165 76.5088 262.306 75.8571 262.589 75.2783C262.876 74.6995 263.272 74.2529 263.778 73.9385C264.289 73.624 264.87 73.4668 265.521 73.4668C266.529 73.4668 267.342 73.8154 267.962 74.5127C268.586 75.21 268.898 76.1374 268.898 77.2949V77.3838C268.898 78.1038 268.759 78.751 268.481 79.3252C268.208 79.8949 267.814 80.3392 267.299 80.6582C266.788 80.9772 266.201 81.1367 265.535 81.1367C264.533 81.1367 263.719 80.7881 263.095 80.0908C262.475 79.3936 262.165 78.4707 262.165 77.3223V77.2334ZM263.437 77.3838C263.437 78.2041 263.626 78.8626 264.004 79.3594C264.387 79.8561 264.897 80.1045 265.535 80.1045C266.178 80.1045 266.688 79.8538 267.066 79.3525C267.445 78.8467 267.634 78.1403 267.634 77.2334C267.634 76.4222 267.44 75.766 267.053 75.2646C266.67 74.7588 266.16 74.5059 265.521 74.5059C264.897 74.5059 264.394 74.7542 264.011 75.251C263.628 75.7477 263.437 76.4587 263.437 77.3838ZM275.051 81C274.978 80.8542 274.919 80.5944 274.873 80.2207C274.285 80.8314 273.583 81.1367 272.768 81.1367C272.038 81.1367 271.439 80.9316 270.97 80.5215C270.505 80.1068 270.272 79.5827 270.272 78.9492C270.272 78.179 270.564 77.582 271.147 77.1582C271.735 76.7298 272.56 76.5156 273.622 76.5156H274.853V75.9346C274.853 75.4925 274.72 75.1416 274.456 74.8818C274.192 74.6175 273.802 74.4854 273.287 74.4854C272.836 74.4854 272.458 74.5993 272.152 74.8271C271.847 75.055 271.694 75.3307 271.694 75.6543H270.423C270.423 75.2852 270.553 74.9297 270.812 74.5879C271.077 74.2415 271.432 73.9681 271.879 73.7676C272.33 73.5671 272.825 73.4668 273.362 73.4668C274.215 73.4668 274.882 73.681 275.365 74.1094C275.848 74.5332 276.099 75.1188 276.117 75.8662V79.2705C276.117 79.9495 276.204 80.4896 276.377 80.8906V81H275.051ZM272.952 80.0361C273.349 80.0361 273.725 79.9336 274.08 79.7285C274.436 79.5234 274.693 79.2568 274.853 78.9287V77.4111H273.861C272.312 77.4111 271.537 77.8646 271.537 78.7715C271.537 79.168 271.669 79.4779 271.934 79.7012C272.198 79.9245 272.537 80.0361 272.952 80.0361ZM277.792 77.2402C277.792 76.1055 278.061 75.194 278.599 74.5059C279.136 73.8132 279.84 73.4668 280.711 73.4668C281.577 73.4668 282.263 73.763 282.769 74.3555V70.5H284.033V81H282.871L282.81 80.207C282.304 80.8268 281.6 81.1367 280.697 81.1367C279.84 81.1367 279.141 80.7858 278.599 80.084C278.061 79.3822 277.792 78.4661 277.792 77.3359V77.2402ZM279.057 77.3838C279.057 78.2223 279.23 78.8786 279.576 79.3525C279.923 79.8265 280.401 80.0635 281.012 80.0635C281.814 80.0635 282.399 79.7035 282.769 78.9834V75.5859C282.39 74.8887 281.809 74.54 281.025 74.54C280.406 74.54 279.923 74.7793 279.576 75.2578C279.23 75.7363 279.057 76.445 279.057 77.3838Z" fill="#004000"/>
<path d="M37.8516 108.437C37.8516 108.017 37.7035 107.664 37.4072 107.377C37.1156 107.09 36.6211 106.83 35.9238 106.598C34.9531 106.301 34.2445 105.916 33.7979 105.442C33.3558 104.964 33.1348 104.358 33.1348 103.624C33.1348 102.877 33.3512 102.264 33.7842 101.785C34.2217 101.307 34.821 101.022 35.582 100.931V99.4336H36.6006V100.938C37.3662 101.042 37.9609 101.364 38.3848 101.901C38.8132 102.439 39.0273 103.175 39.0273 104.109H37.7695C37.7695 103.467 37.6169 102.956 37.3115 102.578C37.0062 102.2 36.5938 102.011 36.0742 102.011C35.5319 102.011 35.1172 102.152 34.8301 102.435C34.543 102.713 34.3994 103.102 34.3994 103.604C34.3994 104.068 34.5498 104.44 34.8506 104.718C35.1559 104.991 35.6549 105.242 36.3477 105.47C37.0449 105.693 37.5872 105.941 37.9746 106.215C38.3665 106.484 38.6536 106.798 38.8359 107.158C39.0228 107.518 39.1162 107.94 39.1162 108.423C39.1162 109.193 38.8838 109.813 38.4189 110.282C37.9587 110.752 37.3115 111.03 36.4775 111.116V112.422H35.4658V111.116C34.6182 111.039 33.9528 110.738 33.4697 110.214C32.9912 109.685 32.752 108.97 32.752 108.067H34.0166C34.0166 108.701 34.1829 109.188 34.5156 109.53C34.8483 109.872 35.32 110.043 35.9307 110.043C36.5277 110.043 36.9971 109.899 37.3389 109.612C37.6807 109.325 37.8516 108.933 37.8516 108.437ZM47.0664 107.384C47.0664 108.509 46.8089 109.416 46.2939 110.104C45.779 110.793 45.0817 111.137 44.2021 111.137C43.3044 111.137 42.598 110.852 42.083 110.282V113.844H40.8184V103.604H41.9736L42.0352 104.424C42.5501 103.786 43.2656 103.467 44.1816 103.467C45.0703 103.467 45.7721 103.802 46.2871 104.472C46.8066 105.142 47.0664 106.074 47.0664 107.268V107.384ZM45.8018 107.24C45.8018 106.406 45.624 105.748 45.2686 105.265C44.9131 104.782 44.4255 104.54 43.8057 104.54C43.04 104.54 42.4658 104.88 42.083 105.559V109.093C42.4613 109.767 43.04 110.104 43.8193 110.104C44.4255 110.104 44.9062 109.865 45.2617 109.387C45.6217 108.904 45.8018 108.188 45.8018 107.24ZM52.2549 104.738C52.0635 104.706 51.8561 104.69 51.6328 104.69C50.8034 104.69 50.2406 105.044 49.9443 105.75V111H48.6797V103.604H49.9102L49.9307 104.458C50.3454 103.797 50.9333 103.467 51.6943 103.467C51.9404 103.467 52.1273 103.499 52.2549 103.562V104.738ZM52.9521 107.233C52.9521 106.509 53.0934 105.857 53.376 105.278C53.6631 104.7 54.0596 104.253 54.5654 103.938C55.0758 103.624 55.6569 103.467 56.3086 103.467C57.3158 103.467 58.1292 103.815 58.749 104.513C59.3734 105.21 59.6855 106.137 59.6855 107.295V107.384C59.6855 108.104 59.5465 108.751 59.2686 109.325C58.9951 109.895 58.6009 110.339 58.0859 110.658C57.5755 110.977 56.9876 111.137 56.3223 111.137C55.3197 111.137 54.5062 110.788 53.8818 110.091C53.262 109.394 52.9521 108.471 52.9521 107.322V107.233ZM54.2236 107.384C54.2236 108.204 54.4128 108.863 54.791 109.359C55.1738 109.856 55.6842 110.104 56.3223 110.104C56.9648 110.104 57.4753 109.854 57.8535 109.353C58.2318 108.847 58.4209 108.14 58.4209 107.233C58.4209 106.422 58.2272 105.766 57.8398 105.265C57.457 104.759 56.9466 104.506 56.3086 104.506C55.6842 104.506 55.1807 104.754 54.7979 105.251C54.415 105.748 54.2236 106.459 54.2236 107.384ZM62.5771 103.604V111.854C62.5771 113.276 61.9323 113.987 60.6426 113.987C60.3646 113.987 60.1071 113.946 59.8701 113.864V112.853C60.016 112.889 60.2074 112.907 60.4443 112.907C60.7269 112.907 60.9411 112.83 61.0869 112.675C61.2373 112.524 61.3125 112.26 61.3125 111.882V103.604H62.5771ZM61.1826 101.642C61.1826 101.441 61.2441 101.27 61.3672 101.129C61.4948 100.983 61.6794 100.91 61.9209 100.91C62.167 100.91 62.3538 100.981 62.4814 101.122C62.609 101.263 62.6729 101.437 62.6729 101.642C62.6729 101.847 62.609 102.018 62.4814 102.154C62.3538 102.291 62.167 102.359 61.9209 102.359C61.6748 102.359 61.4902 102.291 61.3672 102.154C61.2441 102.018 61.1826 101.847 61.1826 101.642ZM67.6904 111.137C66.6878 111.137 65.8721 110.809 65.2432 110.152C64.6143 109.492 64.2998 108.61 64.2998 107.507V107.274C64.2998 106.541 64.4388 105.887 64.7168 105.312C64.9993 104.734 65.3913 104.283 65.8926 103.959C66.3984 103.631 66.9453 103.467 67.5332 103.467C68.4948 103.467 69.2422 103.784 69.7754 104.417C70.3086 105.05 70.5752 105.957 70.5752 107.138V107.664H65.5645C65.5827 108.393 65.7946 108.983 66.2002 109.435C66.6104 109.881 67.1299 110.104 67.7588 110.104C68.2054 110.104 68.5837 110.013 68.8936 109.831C69.2035 109.649 69.4746 109.407 69.707 109.106L70.4795 109.708C69.8597 110.66 68.93 111.137 67.6904 111.137ZM67.5332 104.506C67.0228 104.506 66.5944 104.693 66.248 105.066C65.9017 105.436 65.6875 105.955 65.6055 106.625H69.3105V106.529C69.2741 105.887 69.1009 105.39 68.791 105.039C68.4811 104.684 68.0618 104.506 67.5332 104.506ZM75.0117 110.104C75.4629 110.104 75.8571 109.968 76.1943 109.694C76.5316 109.421 76.7184 109.079 76.7549 108.669H77.9512C77.9284 109.093 77.7826 109.496 77.5137 109.879C77.2448 110.262 76.8848 110.567 76.4336 110.795C75.987 111.023 75.513 111.137 75.0117 111.137C74.0046 111.137 73.2025 110.802 72.6055 110.132C72.013 109.457 71.7168 108.537 71.7168 107.37V107.158C71.7168 106.438 71.849 105.798 72.1133 105.237C72.3776 104.677 72.7559 104.242 73.248 103.932C73.7448 103.622 74.3304 103.467 75.0049 103.467C75.8343 103.467 76.5225 103.715 77.0693 104.212C77.6208 104.709 77.9147 105.354 77.9512 106.146H76.7549C76.7184 105.668 76.5361 105.276 76.208 104.971C75.8844 104.661 75.4834 104.506 75.0049 104.506C74.3623 104.506 73.8633 104.738 73.5078 105.203C73.1569 105.663 72.9814 106.331 72.9814 107.206V107.445C72.9814 108.298 73.1569 108.954 73.5078 109.414C73.8587 109.874 74.36 110.104 75.0117 110.104ZM81.0889 101.812V103.604H82.4697V104.581H81.0889V109.168C81.0889 109.464 81.1504 109.688 81.2734 109.838C81.3965 109.984 81.6061 110.057 81.9023 110.057C82.0482 110.057 82.2487 110.029 82.5039 109.975V111C82.1712 111.091 81.8477 111.137 81.5332 111.137C80.9681 111.137 80.542 110.966 80.2549 110.624C79.9678 110.282 79.8242 109.797 79.8242 109.168V104.581H78.4775V103.604H79.8242V101.812H81.0889ZM85.5596 111H84.2471V101.047H85.5596V111ZM87.46 107.24C87.46 106.105 87.7288 105.194 88.2666 104.506C88.8044 103.813 89.5085 103.467 90.3789 103.467C91.2448 103.467 91.9307 103.763 92.4365 104.355V100.5H93.7012V111H92.5391L92.4775 110.207C91.9717 110.827 91.2676 111.137 90.3652 111.137C89.5085 111.137 88.8089 110.786 88.2666 110.084C87.7288 109.382 87.46 108.466 87.46 107.336V107.24ZM88.7246 107.384C88.7246 108.222 88.8978 108.879 89.2441 109.353C89.5905 109.826 90.069 110.063 90.6797 110.063C91.4818 110.063 92.0674 109.703 92.4365 108.983V105.586C92.0583 104.889 91.4772 104.54 90.6934 104.54C90.0736 104.54 89.5905 104.779 89.2441 105.258C88.8978 105.736 88.7246 106.445 88.7246 107.384Z" fill="#000088"/>
<path d="M35.5752 130.664H34.2695V142.094H35.5752V143.133H32.998V129.625H35.5752V130.664Z" fill="#009900"/>
<path d="M142.74 165.436H137.039V164.335H142.74V165.436ZM142.74 168.272H137.039V167.179H142.74V168.272ZM149.118 166.557L144.6 164.786V163.487L150.438 166.071V167.069L144.6 169.66V168.348L149.118 166.557Z" fill="#339933"/>
<path d="M208.916 172.982L208.198 172.49C208.627 171.893 208.85 171.278 208.868 170.645V169.503H210.105V170.494C210.105 170.954 209.992 171.415 209.764 171.875C209.54 172.335 209.258 172.704 208.916 172.982Z" fill="#339933"/>
<path d="M3.87598 227.028C3.87598 228.045 3.74154 229.02 3.47266 229.954C3.20833 230.884 2.80046 231.743 2.24902 232.531C1.70215 233.32 1.12793 233.88 0.526367 234.213L0.259766 233.44C0.961589 232.903 1.52441 232.069 1.94824 230.938C2.37663 229.804 2.59538 228.546 2.60449 227.165V226.946C2.60449 225.989 2.50423 225.101 2.30371 224.28C2.10319 223.455 1.82292 222.717 1.46289 222.065C1.10742 221.414 0.70638 220.906 0.259766 220.541L0.526367 219.769C1.12793 220.101 1.69987 220.657 2.24219 221.437C2.78906 222.216 3.19694 223.075 3.46582 224.014C3.73926 224.952 3.87598 225.957 3.87598 227.028Z" fill="#009900"/>
<path d="M70.7402 15.4355H65.0391V14.335H70.7402V15.4355ZM70.7402 18.2725H65.0391V17.1787H70.7402V18.2725Z" fill="#339933"/>
<path d="M341.852 18.4365C341.852 18.0173 341.703 17.6641 341.407 17.377C341.116 17.0898 340.621 16.8301 339.924 16.5977C338.953 16.3014 338.244 15.9163 337.798 15.4424C337.356 14.9639 337.135 14.3577 337.135 13.624C337.135 12.8766 337.351 12.2637 337.784 11.7852C338.222 11.3066 338.821 11.0218 339.582 10.9307V9.43359H340.601V10.9375C341.366 11.0423 341.961 11.3636 342.385 11.9014C342.813 12.4391 343.027 13.1751 343.027 14.1094H341.77C341.77 13.4668 341.617 12.9564 341.312 12.5781C341.006 12.1999 340.594 12.0107 340.074 12.0107C339.532 12.0107 339.117 12.152 338.83 12.4346C338.543 12.7126 338.399 13.1022 338.399 13.6035C338.399 14.0684 338.55 14.4398 338.851 14.7178C339.156 14.9912 339.655 15.2419 340.348 15.4697C341.045 15.693 341.587 15.9414 341.975 16.2148C342.367 16.4837 342.654 16.7982 342.836 17.1582C343.023 17.5182 343.116 17.9398 343.116 18.4229C343.116 19.193 342.884 19.8128 342.419 20.2822C341.959 20.7516 341.312 21.0296 340.478 21.1162V22.4219H339.466V21.1162C338.618 21.0387 337.953 20.738 337.47 20.2139C336.991 19.6852 336.752 18.9697 336.752 18.0674H338.017C338.017 18.7008 338.183 19.1885 338.516 19.5303C338.848 19.8721 339.32 20.043 339.931 20.043C340.528 20.043 340.997 19.8994 341.339 19.6123C341.681 19.3252 341.852 18.9333 341.852 18.4365ZM346.534 11.8125V13.6035H347.915V14.5811H346.534V19.168C346.534 19.4642 346.596 19.6875 346.719 19.8379C346.842 19.9837 347.051 20.0566 347.348 20.0566C347.493 20.0566 347.694 20.0293 347.949 19.9746V21C347.617 21.0911 347.293 21.1367 346.979 21.1367C346.413 21.1367 345.987 20.9658 345.7 20.624C345.413 20.2822 345.27 19.7969 345.27 19.168V14.5811H343.923V13.6035H345.27V11.8125H346.534ZM348.927 17.2334C348.927 16.5088 349.068 15.8571 349.351 15.2783C349.638 14.6995 350.034 14.2529 350.54 13.9385C351.05 13.624 351.632 13.4668 352.283 13.4668C353.29 13.4668 354.104 13.8154 354.724 14.5127C355.348 15.21 355.66 16.1374 355.66 17.2949V17.3838C355.66 18.1038 355.521 18.751 355.243 19.3252C354.97 19.8949 354.576 20.3392 354.061 20.6582C353.55 20.9772 352.962 21.1367 352.297 21.1367C351.294 21.1367 350.481 20.7881 349.856 20.0908C349.237 19.3936 348.927 18.4707 348.927 17.3223V17.2334ZM350.198 17.3838C350.198 18.2041 350.387 18.8626 350.766 19.3594C351.148 19.8561 351.659 20.1045 352.297 20.1045C352.939 20.1045 353.45 19.8538 353.828 19.3525C354.206 18.8467 354.396 18.1403 354.396 17.2334C354.396 16.4222 354.202 15.766 353.814 15.2646C353.432 14.7588 352.921 14.5059 352.283 14.5059C351.659 14.5059 351.155 14.7542 350.772 15.251C350.39 15.7477 350.198 16.4587 350.198 17.3838ZM359.311 17.5752L358.518 18.4023V21H357.253V10.5H358.518V16.8506L359.194 16.0371L361.498 13.6035H363.036L360.158 16.6934L363.371 21H361.888L359.311 17.5752ZM367.274 21.1367C366.272 21.1367 365.456 20.8086 364.827 20.1523C364.198 19.4915 363.884 18.6097 363.884 17.5068V17.2744C363.884 16.5407 364.023 15.8867 364.301 15.3125C364.583 14.7337 364.975 14.2826 365.477 13.959C365.982 13.6309 366.529 13.4668 367.117 13.4668C368.079 13.4668 368.826 13.7835 369.359 14.417C369.893 15.0505 370.159 15.9574 370.159 17.1377V17.6641H365.148C365.167 18.3932 365.379 18.9834 365.784 19.4346C366.194 19.8812 366.714 20.1045 367.343 20.1045C367.789 20.1045 368.168 20.0133 368.478 19.8311C368.787 19.6488 369.059 19.4072 369.291 19.1064L370.063 19.708C369.444 20.6605 368.514 21.1367 367.274 21.1367ZM367.117 14.5059C366.607 14.5059 366.178 14.6927 365.832 15.0664C365.486 15.4355 365.271 15.9551 365.189 16.625H368.895V16.5293C368.858 15.8867 368.685 15.39 368.375 15.0391C368.065 14.6836 367.646 14.5059 367.117 14.5059ZM372.825 13.6035L372.866 14.5332C373.431 13.8223 374.17 13.4668 375.081 13.4668C376.644 13.4668 377.433 14.3486 377.446 16.1123V21H376.182V16.1055C376.177 15.5723 376.054 15.1781 375.812 14.9229C375.576 14.6676 375.204 14.54 374.698 14.54C374.288 14.54 373.928 14.6494 373.618 14.8682C373.308 15.0869 373.067 15.374 372.894 15.7295V21H371.629V13.6035H372.825Z" fill="#000088"/>
<path d="M86.7402 75.4355H81.0391V74.335H86.7402V75.4355ZM86.7402 78.2725H81.0391V77.1787H86.7402V78.2725Z" fill="#339933"/>
<path d="M211.589 77.2881H208.253V76.2559H211.589V77.2881ZM217.304 76.5566L212.785 74.7861V73.4873L218.623 76.0713V77.0693L212.785 79.6602V78.3477L217.304 76.5566Z" fill="#339933"/>
<path d="M112.916 112.982L112.198 112.49C112.627 111.893 112.85 111.278 112.868 110.645V109.503H114.105V110.494C114.105 110.954 113.992 111.415 113.764 111.875C113.54 112.335 113.258 112.704 112.916 112.982Z" fill="#339933"/>
<path d="M161.729 161.259L161.586 163.774H160.704L160.711 160.5H161.729V161.259ZM164.71 163.604V171.854C164.71 173.276 164.065 173.987 162.775 173.987C162.497 173.987 162.24 173.946 162.003 173.864V172.853C162.149 172.889 162.34 172.907 162.577 172.907C162.86 172.907 163.074 172.83 163.22 172.675C163.37 172.524 163.445 172.26 163.445 171.882V163.604H164.71ZM163.315 161.642C163.315 161.441 163.377 161.27 163.5 161.129C163.628 160.983 163.812 160.91 164.054 160.91C164.3 160.91 164.487 160.981 164.614 161.122C164.742 161.263 164.806 161.437 164.806 161.642C164.806 161.847 164.742 162.018 164.614 162.154C164.487 162.291 164.3 162.359 164.054 162.359C163.808 162.359 163.623 162.291 163.5 162.154C163.377 162.018 163.315 161.847 163.315 161.642ZM171.061 169.038C171.061 168.696 170.931 168.432 170.671 168.245C170.416 168.054 169.967 167.89 169.324 167.753C168.686 167.616 168.178 167.452 167.8 167.261C167.426 167.069 167.148 166.841 166.966 166.577C166.788 166.313 166.699 165.998 166.699 165.634C166.699 165.028 166.954 164.515 167.465 164.096C167.98 163.676 168.636 163.467 169.434 163.467C170.272 163.467 170.951 163.683 171.471 164.116C171.995 164.549 172.257 165.103 172.257 165.777H170.985C170.985 165.431 170.837 165.132 170.541 164.882C170.249 164.631 169.88 164.506 169.434 164.506C168.973 164.506 168.613 164.606 168.354 164.807C168.094 165.007 167.964 165.269 167.964 165.593C167.964 165.898 168.085 166.128 168.326 166.283C168.568 166.438 169.003 166.586 169.632 166.728C170.265 166.869 170.778 167.037 171.17 167.233C171.562 167.429 171.851 167.666 172.038 167.944C172.229 168.218 172.325 168.553 172.325 168.949C172.325 169.61 172.061 170.141 171.532 170.542C171.004 170.938 170.318 171.137 169.475 171.137C168.882 171.137 168.358 171.032 167.902 170.822C167.447 170.613 167.089 170.321 166.829 169.947C166.574 169.569 166.446 169.161 166.446 168.724H167.711C167.734 169.147 167.902 169.485 168.217 169.735C168.536 169.981 168.955 170.104 169.475 170.104C169.953 170.104 170.336 170.009 170.623 169.817C170.915 169.621 171.061 169.362 171.061 169.038ZM173.638 167.233C173.638 166.509 173.779 165.857 174.062 165.278C174.349 164.7 174.745 164.253 175.251 163.938C175.761 163.624 176.342 163.467 176.994 163.467C178.001 163.467 178.815 163.815 179.435 164.513C180.059 165.21 180.371 166.137 180.371 167.295V167.384C180.371 168.104 180.232 168.751 179.954 169.325C179.681 169.895 179.286 170.339 178.771 170.658C178.261 170.977 177.673 171.137 177.008 171.137C176.005 171.137 175.192 170.788 174.567 170.091C173.948 169.394 173.638 168.471 173.638 167.322V167.233ZM174.909 167.384C174.909 168.204 175.098 168.863 175.477 169.359C175.859 169.856 176.37 170.104 177.008 170.104C177.65 170.104 178.161 169.854 178.539 169.353C178.917 168.847 179.106 168.14 179.106 167.233C179.106 166.422 178.913 165.766 178.525 165.265C178.143 164.759 177.632 164.506 176.994 164.506C176.37 164.506 175.866 164.754 175.483 165.251C175.101 165.748 174.909 166.459 174.909 167.384ZM183.153 163.604L183.194 164.533C183.759 163.822 184.498 163.467 185.409 163.467C186.972 163.467 187.761 164.349 187.774 166.112V171H186.51V166.105C186.505 165.572 186.382 165.178 186.141 164.923C185.904 164.668 185.532 164.54 185.026 164.54C184.616 164.54 184.256 164.649 183.946 164.868C183.636 165.087 183.395 165.374 183.222 165.729V171H181.957V163.604H183.153ZM189.743 161.259L189.6 163.774H188.718L188.725 160.5H189.743V161.259Z" fill="#0000FF"/>
<path d="M8.75879 224.301C8.75879 224.082 8.82259 223.9 8.9502 223.754C9.08236 223.608 9.27832 223.535 9.53809 223.535C9.79785 223.535 9.99382 223.608 10.126 223.754C10.2627 223.9 10.3311 224.082 10.3311 224.301C10.3311 224.51 10.2627 224.686 10.126 224.827C9.99382 224.968 9.79785 225.039 9.53809 225.039C9.27832 225.039 9.08236 224.968 8.9502 224.827C8.82259 224.686 8.75879 224.51 8.75879 224.301ZM8.99805 232.982L8.28027 232.49C8.70866 231.893 8.93197 231.278 8.9502 230.645V229.503H10.1875V230.494C10.1875 230.954 10.0736 231.415 9.8457 231.875C9.6224 232.335 9.33984 232.704 8.99805 232.982Z" fill="#339933"/>
<path d="M104.273 11.0469H105.477L109.633 21.8545H108.43L104.273 11.0469ZM112.217 19.9268H116.934V21H110.897V11.0469H112.217V19.9268ZM117.897 17.2334C117.897 16.5088 118.039 15.8571 118.321 15.2783C118.608 14.6995 119.005 14.2529 119.511 13.9385C120.021 13.624 120.602 13.4668 121.254 13.4668C122.261 13.4668 123.075 13.8154 123.694 14.5127C124.319 15.21 124.631 16.1374 124.631 17.2949V17.3838C124.631 18.1038 124.492 18.751 124.214 19.3252C123.94 19.8949 123.546 20.3392 123.031 20.6582C122.521 20.9772 121.933 21.1367 121.268 21.1367C120.265 21.1367 119.451 20.7881 118.827 20.0908C118.207 19.3936 117.897 18.4707 117.897 17.3223V17.2334ZM119.169 17.3838C119.169 18.2041 119.358 18.8626 119.736 19.3594C120.119 19.8561 120.63 20.1045 121.268 20.1045C121.91 20.1045 122.421 19.8538 122.799 19.3525C123.177 18.8467 123.366 18.1403 123.366 17.2334C123.366 16.4222 123.173 15.766 122.785 15.2646C122.402 14.7588 121.892 14.5059 121.254 14.5059C120.63 14.5059 120.126 14.7542 119.743 15.251C119.36 15.7477 119.169 16.4587 119.169 17.3838ZM128.281 17.5752L127.488 18.4023V21H126.224V10.5H127.488V16.8506L128.165 16.0371L130.469 13.6035H132.007L129.129 16.6934L132.342 21H130.858L128.281 17.5752ZM137.879 21C137.806 20.8542 137.747 20.5944 137.701 20.2207C137.113 20.8314 136.411 21.1367 135.596 21.1367C134.867 21.1367 134.267 20.9316 133.798 20.5215C133.333 20.1068 133.101 19.5827 133.101 18.9492C133.101 18.179 133.392 17.582 133.976 17.1582C134.563 16.7298 135.388 16.5156 136.45 16.5156H137.681V15.9346C137.681 15.4925 137.549 15.1416 137.284 14.8818C137.02 14.6175 136.63 14.4854 136.115 14.4854C135.664 14.4854 135.286 14.5993 134.98 14.8271C134.675 15.055 134.522 15.3307 134.522 15.6543H133.251C133.251 15.2852 133.381 14.9297 133.641 14.5879C133.905 14.2415 134.26 13.9681 134.707 13.7676C135.158 13.5671 135.653 13.4668 136.19 13.4668C137.043 13.4668 137.71 13.681 138.193 14.1094C138.676 14.5332 138.927 15.1188 138.945 15.8662V19.2705C138.945 19.9495 139.032 20.4896 139.205 20.8906V21H137.879ZM135.78 20.0361C136.177 20.0361 136.553 19.9336 136.908 19.7285C137.264 19.5234 137.521 19.2568 137.681 18.9287V17.4111H136.689C135.14 17.4111 134.365 17.8646 134.365 18.7715C134.365 19.168 134.497 19.4779 134.762 19.7012C135.026 19.9245 135.366 20.0361 135.78 20.0361ZM142.302 21H141.037V10.5H142.302V21ZM145.706 21H144.441V13.6035H145.706V21ZM144.339 11.6416C144.339 11.4365 144.4 11.2633 144.523 11.1221C144.651 10.9808 144.838 10.9102 145.084 10.9102C145.33 10.9102 145.517 10.9808 145.645 11.1221C145.772 11.2633 145.836 11.4365 145.836 11.6416C145.836 11.8467 145.772 12.0176 145.645 12.1543C145.517 12.291 145.33 12.3594 145.084 12.3594C144.838 12.3594 144.651 12.291 144.523 12.1543C144.4 12.0176 144.339 11.8467 144.339 11.6416ZM152.043 19.0381C152.043 18.6963 151.913 18.432 151.653 18.2451C151.398 18.0537 150.949 17.8896 150.307 17.7529C149.669 17.6162 149.16 17.4521 148.782 17.2607C148.409 17.0693 148.131 16.8415 147.948 16.5771C147.771 16.3128 147.682 15.9984 147.682 15.6338C147.682 15.0277 147.937 14.515 148.447 14.0957C148.962 13.6764 149.618 13.4668 150.416 13.4668C151.255 13.4668 151.934 13.6833 152.453 14.1162C152.977 14.5492 153.239 15.1029 153.239 15.7773H151.968C151.968 15.431 151.82 15.1325 151.523 14.8818C151.232 14.6312 150.863 14.5059 150.416 14.5059C149.956 14.5059 149.596 14.6061 149.336 14.8066C149.076 15.0072 148.946 15.2692 148.946 15.5928C148.946 15.8981 149.067 16.1283 149.309 16.2832C149.55 16.4382 149.985 16.5863 150.614 16.7275C151.248 16.8688 151.76 17.0374 152.152 17.2334C152.544 17.4294 152.834 17.6663 153.021 17.9443C153.212 18.2178 153.308 18.5527 153.308 18.9492C153.308 19.61 153.043 20.141 152.515 20.542C151.986 20.9385 151.3 21.1367 150.457 21.1367C149.865 21.1367 149.34 21.0319 148.885 20.8223C148.429 20.6126 148.071 20.321 147.812 19.9473C147.556 19.569 147.429 19.1611 147.429 18.7236H148.693C148.716 19.1475 148.885 19.4847 149.199 19.7354C149.518 19.9814 149.938 20.1045 150.457 20.1045C150.936 20.1045 151.318 20.0088 151.605 19.8174C151.897 19.6214 152.043 19.3617 152.043 19.0381ZM158.024 21.1367C157.022 21.1367 156.206 20.8086 155.577 20.1523C154.948 19.4915 154.634 18.6097 154.634 17.5068V17.2744C154.634 16.5407 154.773 15.8867 155.051 15.3125C155.333 14.7337 155.725 14.2826 156.227 13.959C156.732 13.6309 157.279 13.4668 157.867 13.4668C158.829 13.4668 159.576 13.7835 160.109 14.417C160.643 15.0505 160.909 15.9574 160.909 17.1377V17.6641H155.898C155.917 18.3932 156.129 18.9834 156.534 19.4346C156.944 19.8812 157.464 20.1045 158.093 20.1045C158.539 20.1045 158.918 20.0133 159.228 19.8311C159.537 19.6488 159.809 19.4072 160.041 19.1064L160.813 19.708C160.194 20.6605 159.264 21.1367 158.024 21.1367ZM157.867 14.5059C157.357 14.5059 156.928 14.6927 156.582 15.0664C156.236 15.4355 156.021 15.9551 155.939 16.625H159.645V16.5293C159.608 15.8867 159.435 15.39 159.125 15.0391C158.815 14.6836 158.396 14.5059 157.867 14.5059ZM161.695 11.0469H162.898L167.055 21.8545H165.852L161.695 11.0469ZM169.639 19.9268H174.355V21H168.319V11.0469H169.639V19.9268ZM175.319 17.2334C175.319 16.5088 175.461 15.8571 175.743 15.2783C176.03 14.6995 176.427 14.2529 176.933 13.9385C177.443 13.624 178.024 13.4668 178.676 13.4668C179.683 13.4668 180.496 13.8154 181.116 14.5127C181.741 15.21 182.053 16.1374 182.053 17.2949V17.3838C182.053 18.1038 181.914 18.751 181.636 19.3252C181.362 19.8949 180.968 20.3392 180.453 20.6582C179.943 20.9772 179.355 21.1367 178.689 21.1367C177.687 21.1367 176.873 20.7881 176.249 20.0908C175.629 19.3936 175.319 18.4707 175.319 17.3223V17.2334ZM176.591 17.3838C176.591 18.2041 176.78 18.8626 177.158 19.3594C177.541 19.8561 178.051 20.1045 178.689 20.1045C179.332 20.1045 179.842 19.8538 180.221 19.3525C180.599 18.8467 180.788 18.1403 180.788 17.2334C180.788 16.4222 180.594 15.766 180.207 15.2646C179.824 14.7588 179.314 14.5059 178.676 14.5059C178.051 14.5059 177.548 14.7542 177.165 15.251C176.782 15.7477 176.591 16.4587 176.591 17.3838ZM185.703 17.5752L184.91 18.4023V21H183.646V10.5H184.91V16.8506L185.587 16.0371L187.891 13.6035H189.429L186.551 16.6934L189.764 21H188.28L185.703 17.5752ZM195.301 21C195.228 20.8542 195.169 20.5944 195.123 20.2207C194.535 20.8314 193.833 21.1367 193.018 21.1367C192.288 21.1367 191.689 20.9316 191.22 20.5215C190.755 20.1068 190.522 19.5827 190.522 18.9492C190.522 18.179 190.814 17.582 191.397 17.1582C191.985 16.7298 192.81 16.5156 193.872 16.5156H195.103V15.9346C195.103 15.4925 194.97 15.1416 194.706 14.8818C194.442 14.6175 194.052 14.4854 193.537 14.4854C193.086 14.4854 192.708 14.5993 192.402 14.8271C192.097 15.055 191.944 15.3307 191.944 15.6543H190.673C190.673 15.2852 190.803 14.9297 191.062 14.5879C191.327 14.2415 191.682 13.9681 192.129 13.7676C192.58 13.5671 193.075 13.4668 193.612 13.4668C194.465 13.4668 195.132 13.681 195.615 14.1094C196.098 14.5332 196.349 15.1188 196.367 15.8662V19.2705C196.367 19.9495 196.454 20.4896 196.627 20.8906V21H195.301ZM193.202 20.0361C193.599 20.0361 193.975 19.9336 194.33 19.7285C194.686 19.5234 194.943 19.2568 195.103 18.9287V17.4111H194.111C192.562 17.4111 191.787 17.8646 191.787 18.7715C191.787 19.168 191.919 19.4779 192.184 19.7012C192.448 19.9245 192.787 20.0361 193.202 20.0361ZM199.724 21H198.459V10.5H199.724V21ZM203.128 21H201.863V13.6035H203.128V21ZM201.761 11.6416C201.761 11.4365 201.822 11.2633 201.945 11.1221C202.073 10.9808 202.26 10.9102 202.506 10.9102C202.752 10.9102 202.939 10.9808 203.066 11.1221C203.194 11.2633 203.258 11.4365 203.258 11.6416C203.258 11.8467 203.194 12.0176 203.066 12.1543C202.939 12.291 202.752 12.3594 202.506 12.3594C202.26 12.3594 202.073 12.291 201.945 12.1543C201.822 12.0176 201.761 11.8467 201.761 11.6416ZM209.465 19.0381C209.465 18.6963 209.335 18.432 209.075 18.2451C208.82 18.0537 208.371 17.8896 207.729 17.7529C207.09 17.6162 206.582 17.4521 206.204 17.2607C205.83 17.0693 205.552 16.8415 205.37 16.5771C205.192 16.3128 205.104 15.9984 205.104 15.6338C205.104 15.0277 205.359 14.515 205.869 14.0957C206.384 13.6764 207.04 13.4668 207.838 13.4668C208.676 13.4668 209.355 13.6833 209.875 14.1162C210.399 14.5492 210.661 15.1029 210.661 15.7773H209.39C209.39 15.431 209.242 15.1325 208.945 14.8818C208.654 14.6312 208.285 14.5059 207.838 14.5059C207.378 14.5059 207.018 14.6061 206.758 14.8066C206.498 15.0072 206.368 15.2692 206.368 15.5928C206.368 15.8981 206.489 16.1283 206.73 16.2832C206.972 16.4382 207.407 16.5863 208.036 16.7275C208.67 16.8688 209.182 17.0374 209.574 17.2334C209.966 17.4294 210.256 17.6663 210.442 17.9443C210.634 18.2178 210.729 18.5527 210.729 18.9492C210.729 19.61 210.465 20.141 209.937 20.542C209.408 20.9385 208.722 21.1367 207.879 21.1367C207.286 21.1367 206.762 21.0319 206.307 20.8223C205.851 20.6126 205.493 20.321 205.233 19.9473C204.978 19.569 204.851 19.1611 204.851 18.7236H206.115C206.138 19.1475 206.307 19.4847 206.621 19.7354C206.94 19.9814 207.359 20.1045 207.879 20.1045C208.357 20.1045 208.74 20.0088 209.027 19.8174C209.319 19.6214 209.465 19.3617 209.465 19.0381ZM215.446 21.1367C214.444 21.1367 213.628 20.8086 212.999 20.1523C212.37 19.4915 212.056 18.6097 212.056 17.5068V17.2744C212.056 16.5407 212.195 15.8867 212.473 15.3125C212.755 14.7337 213.147 14.2826 213.648 13.959C214.154 13.6309 214.701 13.4668 215.289 13.4668C216.251 13.4668 216.998 13.7835 217.531 14.417C218.064 15.0505 218.331 15.9574 218.331 17.1377V17.6641H213.32C213.339 18.3932 213.55 18.9834 213.956 19.4346C214.366 19.8812 214.886 20.1045 215.515 20.1045C215.961 20.1045 216.34 20.0133 216.649 19.8311C216.959 19.6488 217.23 19.4072 217.463 19.1064L218.235 19.708C217.616 20.6605 216.686 21.1367 215.446 21.1367ZM215.289 14.5059C214.779 14.5059 214.35 14.6927 214.004 15.0664C213.658 15.4355 213.443 15.9551 213.361 16.625H217.066V16.5293C217.03 15.8867 216.857 15.39 216.547 15.0391C216.237 14.6836 215.818 14.5059 215.289 14.5059ZM225.495 18.4023H221.325L220.389 21H219.035L222.836 11.0469H223.984L227.792 21H226.445L225.495 18.4023ZM221.722 17.3223H225.105L223.41 12.667L221.722 17.3223ZM235.182 17.3838C235.182 18.5094 234.924 19.4163 234.409 20.1045C233.894 20.7926 233.197 21.1367 232.317 21.1367C231.42 21.1367 230.713 20.8519 230.198 20.2822V23.8438H228.934V13.6035H230.089L230.15 14.4238C230.665 13.7858 231.381 13.4668 232.297 13.4668C233.186 13.4668 233.887 13.8018 234.402 14.4717C234.922 15.1416 235.182 16.0736 235.182 17.2676V17.3838ZM233.917 17.2402C233.917 16.4062 233.739 15.7477 233.384 15.2646C233.028 14.7816 232.541 14.54 231.921 14.54C231.155 14.54 230.581 14.8796 230.198 15.5586V19.0928C230.576 19.7673 231.155 20.1045 231.935 20.1045C232.541 20.1045 233.021 19.8652 233.377 19.3867C233.737 18.9036 233.917 18.1882 233.917 17.2402ZM238.169 21H236.904V13.6035H238.169V21ZM236.802 11.6416C236.802 11.4365 236.863 11.2633 236.986 11.1221C237.114 10.9808 237.301 10.9102 237.547 10.9102C237.793 10.9102 237.98 10.9808 238.107 11.1221C238.235 11.2633 238.299 11.4365 238.299 11.6416C238.299 11.8467 238.235 12.0176 238.107 12.1543C237.98 12.291 237.793 12.3594 237.547 12.3594C237.301 12.3594 237.114 12.291 236.986 12.1543C236.863 12.0176 236.802 11.8467 236.802 11.6416ZM247.719 17.8418C247.596 18.8945 247.206 19.708 246.55 20.2822C245.898 20.8519 245.03 21.1367 243.945 21.1367C242.77 21.1367 241.826 20.7152 241.115 19.8721C240.409 19.029 240.056 17.901 240.056 16.4883V15.5312C240.056 14.6061 240.22 13.7926 240.548 13.0908C240.881 12.389 241.35 11.8512 241.956 11.4775C242.562 11.0993 243.264 10.9102 244.062 10.9102C245.119 10.9102 245.966 11.2064 246.604 11.7988C247.243 12.3867 247.614 13.2025 247.719 14.2461H246.399C246.285 13.4531 246.037 12.8789 245.654 12.5234C245.276 12.168 244.745 11.9902 244.062 11.9902C243.223 11.9902 242.564 12.3001 242.086 12.9199C241.612 13.5397 241.375 14.4215 241.375 15.5654V16.5293C241.375 17.6094 241.601 18.4684 242.052 19.1064C242.503 19.7445 243.134 20.0635 243.945 20.0635C244.674 20.0635 245.233 19.8994 245.62 19.5713C246.012 19.2386 246.272 18.6621 246.399 17.8418H247.719ZM250.692 21H249.428V10.5H250.692V21ZM254.097 21H252.832V13.6035H254.097V21ZM252.729 11.6416C252.729 11.4365 252.791 11.2633 252.914 11.1221C253.042 10.9808 253.229 10.9102 253.475 10.9102C253.721 10.9102 253.908 10.9808 254.035 11.1221C254.163 11.2633 254.227 11.4365 254.227 11.6416C254.227 11.8467 254.163 12.0176 254.035 12.1543C253.908 12.291 253.721 12.3594 253.475 12.3594C253.229 12.3594 253.042 12.291 252.914 12.1543C252.791 12.0176 252.729 11.8467 252.729 11.6416ZM259.196 21.1367C258.194 21.1367 257.378 20.8086 256.749 20.1523C256.12 19.4915 255.806 18.6097 255.806 17.5068V17.2744C255.806 16.5407 255.945 15.8867 256.223 15.3125C256.505 14.7337 256.897 14.2826 257.398 13.959C257.904 13.6309 258.451 13.4668 259.039 13.4668C260.001 13.4668 260.748 13.7835 261.281 14.417C261.814 15.0505 262.081 15.9574 262.081 17.1377V17.6641H257.07C257.089 18.3932 257.3 18.9834 257.706 19.4346C258.116 19.8812 258.636 20.1045 259.265 20.1045C259.711 20.1045 260.09 20.0133 260.399 19.8311C260.709 19.6488 260.98 19.4072 261.213 19.1064L261.985 19.708C261.366 20.6605 260.436 21.1367 259.196 21.1367ZM259.039 14.5059C258.529 14.5059 258.1 14.6927 257.754 15.0664C257.408 15.4355 257.193 15.9551 257.111 16.625H260.816V16.5293C260.78 15.8867 260.607 15.39 260.297 15.0391C259.987 14.6836 259.568 14.5059 259.039 14.5059ZM264.747 13.6035L264.788 14.5332C265.353 13.8223 266.091 13.4668 267.003 13.4668C268.566 13.4668 269.354 14.3486 269.368 16.1123V21H268.104V16.1055C268.099 15.5723 267.976 15.1781 267.734 14.9229C267.497 14.6676 267.126 14.54 266.62 14.54C266.21 14.54 265.85 14.6494 265.54 14.8682C265.23 15.0869 264.989 15.374 264.815 15.7295V21H263.551V13.6035H264.747ZM272.991 11.8125V13.6035H274.372V14.5811H272.991V19.168C272.991 19.4642 273.053 19.6875 273.176 19.8379C273.299 19.9837 273.508 20.0566 273.805 20.0566C273.951 20.0566 274.151 20.0293 274.406 19.9746V21C274.074 21.0911 273.75 21.1367 273.436 21.1367C272.87 21.1367 272.444 20.9658 272.157 20.624C271.87 20.2822 271.727 19.7969 271.727 19.168V14.5811H270.38V13.6035H271.727V11.8125H272.991Z" fill="#9876AA"/>
<path d="M155.589 77.2881H152.253V76.2559H155.589V77.2881ZM161.304 76.5566L156.785 74.7861V73.4873L162.623 76.0713V77.0693L156.785 79.6602V78.3477L161.304 76.5566Z" fill="#339933"/>
<path d="M65.7295 161.259L65.5859 163.774H64.7041L64.7109 160.5H65.7295V161.259ZM68.0264 171V164.581H66.8574V163.604H68.0264V162.845C68.0264 162.052 68.2383 161.439 68.6621 161.006C69.0859 160.573 69.6852 160.356 70.46 160.356C70.7516 160.356 71.041 160.395 71.3281 160.473L71.2598 161.498C71.0456 161.457 70.8177 161.437 70.5762 161.437C70.166 161.437 69.8493 161.557 69.626 161.799C69.4027 162.036 69.291 162.378 69.291 162.824V163.604H70.8701V164.581H69.291V171H68.0264ZM71.9365 167.233C71.9365 166.509 72.0778 165.857 72.3604 165.278C72.6475 164.7 73.0439 164.253 73.5498 163.938C74.0602 163.624 74.6413 163.467 75.293 163.467C76.3001 163.467 77.1136 163.815 77.7334 164.513C78.3577 165.21 78.6699 166.137 78.6699 167.295V167.384C78.6699 168.104 78.5309 168.751 78.2529 169.325C77.9795 169.895 77.5853 170.339 77.0703 170.658C76.5599 170.977 75.972 171.137 75.3066 171.137C74.304 171.137 73.4906 170.788 72.8662 170.091C72.2464 169.394 71.9365 168.471 71.9365 167.322V167.233ZM73.208 167.384C73.208 168.204 73.3971 168.863 73.7754 169.359C74.1582 169.856 74.6686 170.104 75.3066 170.104C75.9492 170.104 76.4596 169.854 76.8379 169.353C77.2161 168.847 77.4053 168.14 77.4053 167.233C77.4053 166.422 77.2116 165.766 76.8242 165.265C76.4414 164.759 75.931 164.506 75.293 164.506C74.6686 164.506 74.165 164.754 73.7822 165.251C73.3994 165.748 73.208 166.459 73.208 167.384ZM83.8311 164.738C83.6396 164.706 83.4323 164.69 83.209 164.69C82.3796 164.69 81.8167 165.044 81.5205 165.75V171H80.2559V163.604H81.4863L81.5068 164.458C81.9215 163.797 82.5094 163.467 83.2705 163.467C83.5166 163.467 83.7035 163.499 83.8311 163.562V164.738ZM86.1895 163.604L86.2236 164.424C86.766 163.786 87.4974 163.467 88.418 163.467C89.4525 163.467 90.1566 163.863 90.5303 164.656C90.7764 164.301 91.0954 164.014 91.4873 163.795C91.8838 163.576 92.3509 163.467 92.8887 163.467C94.5111 163.467 95.3359 164.326 95.3633 166.044V171H94.0986V166.119C94.0986 165.59 93.9779 165.196 93.7363 164.937C93.4948 164.672 93.0892 164.54 92.5195 164.54C92.0501 164.54 91.6605 164.681 91.3506 164.964C91.0407 165.242 90.8607 165.618 90.8105 166.092V171H89.5391V166.153C89.5391 165.078 89.0127 164.54 87.96 164.54C87.1305 164.54 86.5632 164.893 86.2578 165.6V171H84.9932V163.604H86.1895ZM101.844 171C101.771 170.854 101.712 170.594 101.666 170.221C101.078 170.831 100.376 171.137 99.5605 171.137C98.8314 171.137 98.2321 170.932 97.7627 170.521C97.2979 170.107 97.0654 169.583 97.0654 168.949C97.0654 168.179 97.3571 167.582 97.9404 167.158C98.5283 166.73 99.3532 166.516 100.415 166.516H101.646V165.935C101.646 165.493 101.513 165.142 101.249 164.882C100.985 164.618 100.595 164.485 100.08 164.485C99.6289 164.485 99.2507 164.599 98.9453 164.827C98.64 165.055 98.4873 165.331 98.4873 165.654H97.2158C97.2158 165.285 97.3457 164.93 97.6055 164.588C97.8698 164.242 98.2253 163.968 98.6719 163.768C99.123 163.567 99.6175 163.467 100.155 163.467C101.007 163.467 101.675 163.681 102.158 164.109C102.641 164.533 102.892 165.119 102.91 165.866V169.271C102.91 169.95 102.997 170.49 103.17 170.891V171H101.844ZM99.7451 170.036C100.142 170.036 100.518 169.934 100.873 169.729C101.229 169.523 101.486 169.257 101.646 168.929V167.411H100.654C99.1048 167.411 98.3301 167.865 98.3301 168.771C98.3301 169.168 98.4622 169.478 98.7266 169.701C98.9909 169.924 99.3304 170.036 99.7451 170.036ZM106.608 161.812V163.604H107.989V164.581H106.608V169.168C106.608 169.464 106.67 169.688 106.793 169.838C106.916 169.984 107.126 170.057 107.422 170.057C107.568 170.057 107.768 170.029 108.023 169.975V171C107.691 171.091 107.367 171.137 107.053 171.137C106.488 171.137 106.062 170.966 105.774 170.624C105.487 170.282 105.344 169.797 105.344 169.168V164.581H103.997V163.604H105.344V161.812H106.608ZM110.245 161.259L110.102 163.774H109.22L109.227 160.5H110.245V161.259Z" fill="#0000FF"/>
<path d="M392.759 14.3008C392.759 14.082 392.823 13.8997 392.95 13.7539C393.082 13.6081 393.278 13.5352 393.538 13.5352C393.798 13.5352 393.994 13.6081 394.126 13.7539C394.263 13.8997 394.331 14.082 394.331 14.3008C394.331 14.5104 394.263 14.6859 394.126 14.8271C393.994 14.9684 393.798 15.0391 393.538 15.0391C393.278 15.0391 393.082 14.9684 392.95 14.8271C392.823 14.6859 392.759 14.5104 392.759 14.3008ZM392.998 22.9824L392.28 22.4902C392.709 21.8932 392.932 21.278 392.95 20.6445V19.5029H394.188V20.4941C394.188 20.9544 394.074 21.4147 393.846 21.875C393.622 22.3353 393.34 22.7044 392.998 22.9824Z" fill="#339933"/>
<path d="M32.0615 189.625H34.6455V203.133H32.0615V202.094H33.3809V190.664H32.0615V189.625Z" fill="#009900"/>
<path d="M288.909 76.96C288.909 75.93 289.046 74.9411 289.319 73.9932C289.597 73.0452 290.01 72.1839 290.557 71.4092C291.104 70.6344 291.671 70.0876 292.259 69.7686L292.519 70.6025C291.853 71.113 291.306 71.8923 290.878 72.9404C290.454 73.9886 290.222 75.1621 290.181 76.4609L290.174 77.042C290.174 78.8011 290.495 80.3278 291.138 81.6221C291.525 82.3968 291.985 83.0029 292.519 83.4404L292.259 84.2129C291.653 83.8757 291.074 83.3105 290.522 82.5176C289.447 80.9681 288.909 79.1156 288.909 76.96Z" fill="#009900"/>
</svg>
